<svg width="50" height="50" viewBox="0 0 50 50" fill="none" xmlns="http://www.w3.org/2000/svg">
<path d="M0 25C0 11.1929 11.1929 0 25 0C38.8071 0 50 11.1929 50 25C50 38.8071 38.8071 50 25 50C11.1929 50 0 38.8071 0 25Z" fill="#0A182E"/>
<path d="M14.3887 34.3574C14.4941 34.3926 14.7168 34.4746 15.0566 34.6035C15.4082 34.7207 15.7949 34.8203 16.2168 34.9023V18.3438L13.457 17.4121C13.1875 16.7793 13.0527 16.0527 13.0527 15.2324C13.0527 14.5645 13.1582 13.9668 13.3691 13.4395C14.2129 13.2168 15.2266 13.0469 16.4102 12.9297C17.6055 12.8008 18.7598 12.7363 19.873 12.7363C21.5254 12.7363 22.9844 12.8594 24.25 13.1055C24.8359 14.2422 25.7031 16.3809 26.8516 19.5215C28.0117 22.6621 29.4062 26.7812 31.0352 31.8789L31.334 31.8438C30.9941 28.9492 30.6543 25.5566 30.3145 21.666C29.9863 17.7637 29.8223 15.0918 29.8223 13.6504C30.4316 13.3691 31.1113 13.1523 31.8613 13C32.6113 12.8359 33.3027 12.7539 33.9355 12.7539C34.9668 12.7539 35.957 12.9648 36.9062 13.3867L35.2012 35.6055C35.8105 36.4844 36.1914 37.5156 36.3438 38.6992C35.8633 39.2266 35.1309 39.6367 34.1465 39.9297C33.1738 40.2109 32.1367 40.3516 31.0352 40.3516C30.1797 40.3516 29.4004 40.2637 28.6973 40.0879C28.0059 39.9121 27.4668 39.6426 27.0801 39.2793C27.0918 38.4004 27.168 37.5977 27.3086 36.8711C26.4297 35.1133 25.5801 33.1797 24.7598 31.0703C23.9512 28.9492 22.9199 26.1367 21.666 22.6328L20.8926 20.4883L20.7871 20.5059C21.0332 22.334 21.2969 25.0293 21.5781 28.5918C21.8594 32.1426 22 34.7383 22 36.3789C22 37.6914 21.6074 38.6816 20.8223 39.3496C20.0488 40.0176 18.8359 40.3516 17.1836 40.3516C16.668 40.3516 16.1172 40.252 15.5312 40.0527C14.9453 39.8535 14.4121 39.6016 13.9316 39.2969C13.4629 38.9805 13.1348 38.6758 12.9473 38.3828C12.9473 37.5391 13.0762 36.7363 13.334 35.9746C13.5918 35.2129 13.9434 34.6738 14.3887 34.3574Z" fill="#46B49F"/>
</svg>
