<svg width="128" height="128" viewBox="0 0 128 128" fill="none" xmlns="http://www.w3.org/2000/svg">
<rect x="0.5" y="0.5" width="127" height="127" rx="63.5" stroke="#46B49F"/>
<path d="M43.7773 78.7148C43.9883 78.7852 44.4336 78.9492 45.1133 79.207C45.8164 79.4414 46.5898 79.6406 47.4336 79.8047V46.6875L41.9141 44.8242C41.375 43.5586 41.1055 42.1055 41.1055 40.4648C41.1055 39.1289 41.3164 37.9336 41.7383 36.8789C43.4258 36.4336 45.4531 36.0938 47.8203 35.8594C50.2109 35.6016 52.5195 35.4727 54.7461 35.4727C58.0508 35.4727 60.9688 35.7188 63.5 36.2109C64.6719 38.4844 66.4062 42.7617 68.7031 49.043C71.0234 55.3242 73.8125 63.5625 77.0703 73.7578L77.668 73.6875C76.9883 67.8984 76.3086 61.1133 75.6289 53.332C74.9727 45.5273 74.6445 40.1836 74.6445 37.3008C75.8633 36.7383 77.2227 36.3047 78.7227 36C80.2227 35.6719 81.6055 35.5078 82.8711 35.5078C84.9336 35.5078 86.9141 35.9297 88.8125 36.7734L85.4023 81.2109C86.6211 82.9688 87.3828 85.0312 87.6875 87.3984C86.7266 88.4531 85.2617 89.2734 83.293 89.8594C81.3477 90.4219 79.2734 90.7031 77.0703 90.7031C75.3594 90.7031 73.8008 90.5273 72.3945 90.1758C71.0117 89.8242 69.9336 89.2852 69.1602 88.5586C69.1836 86.8008 69.3359 85.1953 69.6172 83.7422C67.8594 80.2266 66.1602 76.3594 64.5195 72.1406C62.9023 67.8984 60.8398 62.2734 58.332 55.2656L56.7852 50.9766L56.5742 51.0117C57.0664 54.668 57.5938 60.0586 58.1562 67.1836C58.7188 74.2852 59 79.4766 59 82.7578C59 85.3828 58.2148 87.3633 56.6445 88.6992C55.0977 90.0352 52.6719 90.7031 49.3672 90.7031C48.3359 90.7031 47.2344 90.5039 46.0625 90.1055C44.8906 89.707 43.8242 89.2031 42.8633 88.5938C41.9258 87.9609 41.2695 87.3516 40.8945 86.7656C40.8945 85.0781 41.1523 83.4727 41.668 81.9492C42.1836 80.4258 42.8867 79.3477 43.7773 78.7148Z" fill="#46B49F"/>
</svg>
